<?xml version="1.0" standalone="no"?>
<!DOCTYPE svg PUBLIC "-//W3C//DTD SVG 20010904//EN"
 "http://www.w3.org/TR/2001/REC-SVG-20010904/DTD/svg10.dtd">
<svg version="1.0" xmlns="http://www.w3.org/2000/svg"
 width="918.000000pt" height="996.000000pt" viewBox="0 0 918.000000 996.000000"
 preserveAspectRatio="xMidYMid meet">
<metadata>
Created by potrace 1.10, written by Peter Selinger 2001-2011
</metadata>
<g transform="translate(0.000000,996.000000) scale(0.100000,-0.100000)"
fill="#2f4441" stroke="none">
<path d="M3175 8541 c-210 -73 -366 -248 -437 -494 -18 -61 -22 -98 -21 -247
0 -170 1 -178 32 -269 87 -260 271 -400 547 -419 l107 -7 14 -40 c8 -22 23
-85 34 -140 11 -55 26 -120 34 -145 7 -25 27 -108 44 -185 17 -77 38 -162 45
-190 8 -27 19 -72 25 -100 16 -79 50 -225 65 -280 8 -27 21 -86 30 -130 9 -44
24 -104 33 -133 22 -71 10 -82 -48 -44 -24 16 -84 55 -134 87 -103 66 -136 87
-220 141 -33 21 -67 42 -75 47 -8 4 -60 36 -115 72 -55 35 -129 82 -165 105
-36 22 -121 76 -190 120 -69 43 -155 98 -192 121 -79 48 -81 58 -39 133 94
169 53 337 -112 457 -100 73 -304 97 -412 49 -117 -53 -190 -131 -240 -261
-21 -52 -25 -80 -25 -161 0 -90 3 -105 31 -161 35 -71 55 -95 119 -142 122
-89 274 -96 412 -20 42 24 57 19 160 -47 54 -35 133 -85 175 -112 43 -27 114
-72 158 -101 44 -28 105 -66 135 -85 30 -19 85 -53 123 -77 177 -113 216 -138
262 -168 28 -18 129 -83 227 -144 97 -62 181 -118 187 -125 11 -13 -29 -82
-214 -366 -34 -52 -84 -129 -110 -170 -65 -101 -121 -188 -187 -290 -30 -47
-93 -143 -138 -215 -46 -71 -88 -133 -94 -137 -6 -4 -18 -5 -26 -1 -175 73
-315 -2 -360 -194 -9 -42 -9 -64 0 -105 24 -101 69 -155 170 -209 62 -33 176
-33 237 -1 61 32 108 85 126 143 21 65 21 99 0 165 l-16 52 74 113 c41 62 88
134 104 161 17 26 82 128 144 225 125 193 190 295 277 431 91 141 99 152 109
152 13 0 71 -216 100 -370 3 -19 12 -55 19 -80 8 -25 21 -79 30 -120 33 -141
48 -205 61 -255 7 -27 21 -86 30 -130 9 -44 22 -100 29 -125 7 -25 21 -79 30
-120 9 -41 28 -122 42 -180 15 -58 30 -121 34 -140 29 -136 64 -283 75 -325 8
-27 28 -113 46 -190 17 -77 35 -151 39 -165 5 -14 11 -41 15 -60 9 -50 34
-158 49 -210 8 -25 22 -83 31 -130 10 -47 27 -119 37 -160 11 -41 22 -85 25
-97 4 -18 -4 -26 -48 -49 -74 -37 -167 -134 -205 -214 -60 -125 -77 -273 -48
-416 35 -171 137 -315 269 -380 51 -25 74 -29 159 -32 159 -6 280 40 392 148
92 88 136 169 169 310 20 88 19 156 -6 260 -45 192 -165 319 -346 366 -30 8
-71 14 -92 14 -21 0 -44 6 -50 14 -10 12 -35 106 -76 281 -7 33 -27 116 -44
185 -42 177 -120 506 -133 565 -6 28 -16 70 -24 95 -7 25 -17 68 -23 96 -9 47
-55 245 -116 499 -13 55 -33 141 -45 190 -11 50 -34 144 -50 210 -16 66 -36
149 -44 185 -23 103 -74 315 -102 430 -45 182 -45 181 28 131 24 -16 70 -46
103 -67 33 -21 89 -56 125 -79 36 -23 89 -57 119 -76 30 -19 89 -56 132 -84
43 -27 104 -66 136 -86 32 -20 146 -93 253 -161 179 -114 349 -222 530 -338
39 -25 135 -85 213 -134 78 -49 171 -109 207 -132 110 -71 352 -224 414 -263
32 -20 70 -45 84 -56 l24 -21 -16 -75 c-16 -69 -16 -81 -1 -150 36 -167 109
-272 263 -377 155 -106 386 -145 561 -94 90 26 145 58 208 120 89 86 153 235
153 354 0 153 -96 339 -233 448 -152 122 -358 186 -515 161 -106 -16 -206 -68
-279 -142 -32 -33 -61 -59 -66 -59 -4 0 -59 32 -120 71 -62 40 -134 86 -161
103 -27 17 -85 54 -127 81 -43 28 -113 72 -156 99 -110 70 -195 124 -295 189
-48 32 -89 57 -92 57 -3 0 -25 13 -48 29 -24 16 -77 50 -118 76 -41 27 -97 63
-125 80 -271 174 -457 292 -593 377 -59 37 -127 80 -152 97 -25 16 -78 50
-117 75 -330 209 -373 238 -373 252 0 11 58 104 258 414 20 30 54 84 77 120
63 98 105 165 180 280 38 58 88 135 112 173 117 182 139 217 180 278 l43 66
82 5 c108 6 168 33 241 106 187 190 181 512 -12 630 -48 30 -149 62 -193 62
-29 0 -149 -42 -184 -64 -82 -54 -162 -158 -195 -253 -24 -69 -25 -192 -4
-254 9 -24 31 -63 50 -88 19 -24 35 -52 35 -61 0 -9 -31 -64 -68 -121 -59 -89
-147 -227 -189 -294 -12 -19 -95 -148 -203 -315 -25 -38 -98 -151 -163 -252
-141 -220 -145 -225 -155 -212 -5 5 -23 72 -41 149 -18 77 -46 196 -62 265
-17 69 -37 152 -44 185 -8 33 -28 119 -45 190 -17 72 -35 148 -40 170 -31 130
-82 349 -95 400 -18 71 -14 76 68 109 30 13 86 44 125 70 299 199 369 608 162
956 -71 121 -209 251 -315 298 -90 40 -151 52 -270 51 -104 0 -131 -4 -200
-28z m351 -155 c180 -65 307 -219 371 -446 20 -72 21 -211 1 -275 -42 -135
-150 -256 -280 -315 -61 -27 -70 -20 -91 68 -10 42 -32 133 -48 202 -78 325
-83 345 -107 369 -20 20 -30 23 -70 18 -54 -6 -82 -33 -82 -81 0 -17 15 -92
34 -166 18 -74 41 -173 51 -220 9 -47 24 -103 31 -125 8 -22 15 -60 16 -85 l3
-45 -75 1 c-173 2 -311 115 -376 310 -22 68 -26 97 -27 204 -1 180 39 306 137
430 120 153 337 219 512 156z m1359 -6230 c64 -29 134 -107 160 -177 29 -80
28 -223 -3 -305 -42 -110 -135 -207 -234 -241 -126 -44 -226 -24 -307 62 -139
147 -154 409 -32 566 32 41 96 89 104 78 10 -15 30 -69 36 -103 25 -123 65
-285 77 -308 30 -58 106 -67 148 -17 31 37 32 47 7 147 -37 149 -71 297 -71
310 0 20 60 14 115 -12z"/>
</g>
</svg>
